/* XPM */
static char *_e43941f9c664fe9ba74308cb57a57a4EVJlzBqsq9ztRwnO[] = {
/* columns rows colors chars-per-pixel */
"64 64 42 1 ",
"  c None",
". c #D42F00",
"X c #D43100",
"o c #D53100",
"O c #D53300",
"+ c #D53500",
"@ c #D53700",
"# c #D53800",
"$ c #D53900",
"% c #D63D0A",
"& c #D63E0B",
"* c #D63E0C",
"= c #D74208",
"- c #D74619",
"; c #D7461A",
": c #D95127",
"> c #DA5629",
", c #DB582F",
"< c #DB5B32",
"1 c #D75541",
"2 c #D85845",
"3 c #D85947",
"4 c #D85C4B",
"5 c #DE8278",
"6 c #DE8279",
"7 c #DE8379",
"8 c #DE847B",
"9 c #E1918A",
"0 c #E1938C",
"q c #E1958E",
"w c #E9B7B3",
"e c #E9B8B4",
"r c #EAB8B4",
"t c #EDC6C3",
"y c #F5E0DF",
"u c #F5E1DF",
"i c #F5E2E0",
"p c #F8E9E8",
"a c #F8EAE9",
"s c #FDF8F8",
"d c #FDF9F9",
"f c white",
/* pixels */
"                                                                ",
"                                                                ",
"                                                                ",
"                                                                ",
"                                                                ",
"                                                                ",
"                                    $$$$$$$$                    ",
"                                    $$$$$$$$                    ",
"                                  $$$$$$$$$$$$$$                ",
"                                  $$$$$$$$$$$$$$                ",
"                                $$$$$$$$$$$$$$$$$$              ",
"                                $$$$$$$$$$$$$$$$$$              ",
"                            $$$$$$$$$$$$$$$$$$$$$$$$            ",
"                            $$$$$$$$$$$$$$$$$$$$$$$$            ",
"                          $$$$$$$$$$$$$$$$$$$$$$$$$$$$          ",
"                          $$$$$$$$$$$@$$$$$$$$$$$$$$$$          ",
"                        $$$$$$$$$$$$$$$$$$$$$$$$$$$$$$          ",
"                        $$$$$$$$$$$&;;*$$$$$$$$$$@$$$$          ",
"                      $$$$$$$$$$$@$;,,;$$$$$$$$$$$$$$$$$        ",
"                      @$$$$$$$$$$&;:<,;$@$$$$$$*;;*$$$$$        ",
"                    $$$$$$$$$$$@$;,<:;&$$$$$$@$;,,;$$$$$        ",
"                    $*;;*$$$$$$$$;,,;$@$$$$$$$$;,,;$@$$$        ",
"                  $@$;,,;$$$$$$$$*;;&$$$$$$$$$$*;;*$$$$$        ",
"                  $$$;,,;$@$$$$$$$$$$$$$$$$$$$$$$$$$$@OO        ",
"                $$$$$*;;*$$$$$$$$$$@$$$$$$$$$$$$$@$$$$$$        ",
"                $$$$$$@&;;*$$$$$$$$$$$@$$$$$$$@$$$$@O360        ",
"              $$$$$$$$@;,,;$@$$$$$$$$$$$$$$$$$$$$$$O$8tu        ",
"              $$$$$$@&;:<,;$$$$$$$$$$*;;*$$$$*;;*@O16rpf        ",
"            $$$$$$$$$;,<:;&$$$$$$$$@$;,,;$$@@;,,;O@6tpdf        ",
"            $$$$$$$&;:<,;$@$$$$$$$$$$;,,;$@$$;,>=16wpfff        ",
"          $$$$$$$@$;,<:;&$$$$$$$$$$$$*;;*$$@$*;=*6tpdfff        ",
"          $$$$$$$$$;,,;$@$$$$$$@$$$$$$$$$*;;*@O16wpfffff        ",
"        $$$$$$$$$$$*;;&$$$$$$$$$$$$$$$$@$;,,;O@6tpdfffff        ",
"        $$$$$$$$$$$$$$$$$$$$@&;;*$$$$$$$$;,>=16wpfffffff        ",
"        $$$$$$$$$$$$@$$$$$$$$;,,;$$$$$$$$*;=*6tpdfffff          ",
"        OO@$$$$@$$$$$$$$$$@&;:<,;$@$$$$$@@O16wpfffffff          ",
"        @$$$$$$$$$$$$$$$$@$;,<:;&$$$$$$$$O$6tpdfffff            ",
"        064$@*;;*$$$$$$$$&;:<,;$@$$$$$@@O16wpfffffff            ",
"        ut8$O;,,;$@$$$$@$;,<:;&$$$$$$@$O$6tpdfffff              ",
"        fy0O.;,,;$$$$$$$$;,,;$@$$$$$$@O16wpfffffff              ",
"        fiq$O*;;*$$$$$$$$*;;&@$$$$$$$O$6tpdfffff                ",
"        fpe62$@$$$$@$$$$$$$$$$$$$$$@$26wpfffffff                ",
"        fspt6$O@$$$$$$$$$$$@$$$$$$$O$6tpdfffff                  ",
"        fffu0$O@$*;;*$$$$@$$$$$$$$$.O9ufffffff                  ",
"        fffi0@O$@;,,;$@$$$$$$$$$$$$X$0ufffff                    ",
"        fffy9O.@$;,,;$$*;;*$$$$$@@O16wpfffff                    ",
"        fffu0$O@$*;;*$$;,,;$@$$$$O@6tpdfff                      ",
"        fffpe61..OOO@@$;,,;$$@O.O16wpfffff                      ",
"          fdpt6$O$@$$$@*;;*$@$$O$6tpdfffff                      ",
"          fffpw090062O.OO.O.O3690wpfffffff                      ",
"          fffspuyiut6$O$@@@O$6tyipdfffff                        ",
"          fffffffffpw09000090wpfffffffff                        ",
"            fffffffspuuuuuuuupsfffff                            ",
"            ffffffffffffffffffffffff                            ",
"                ffffffffffffffffff                              ",
"                ffffffffffffffffff                              ",
"                      ffffffff                                  ",
"                      ffffffff                                  ",
"                                                                ",
"                                                                ",
"                                                                ",
"                                                                ",
"                                                                ",
"                                                                "
};
