/* XPM */
static char *e0bb6a244efb4a1ad969cd8c79e94d4avzaWtA2xL0cJ6UaH[] = {
/* columns rows colors chars-per-pixel */
"64 64 20 1 ",
"  c None",
". c black",
"X c #010101",
"o c #020202",
"O c gray1",
"+ c #040404",
"@ c gray2",
"# c #060606",
"$ c #070707",
"% c gray3",
"& c #090909",
"* c gray4",
"= c #0B0B0B",
"- c #0C0C0C",
"; c gray5",
": c #0E0E0E",
"> c gray6",
", c #101010",
"< c #111111",
"1 c #131313",
/* pixels */
"                                                                ",
"                                                                ",
"                                                                ",
"                                                                ",
"                                                                ",
"                                                                ",
"                                                                ",
"                                                                ",
"                                                                ",
"                                                                ",
"                                                                ",
"                                                                ",
"                                                                ",
"                                                                ",
"                                                                ",
"                                                                ",
"                                                                ",
"                                                                ",
"                                                                ",
"                            $$                                  ",
"                     $$   $=---=$                               ",
"                     ==O$==-11---=$$ $=       -                 ",
"                    =1-----=====-1-11--      -                  ",
"                   1-1--==========---11-                        ",
"                   ----===$$O$$$$$==---- =                      ",
"                   -===OOOOOOOOOO$OO$=-1$O                      ",
"                  O-==OOOOOOOOOOOOOOO=-1-$                      ",
"                 O=1==OOOOOOOOOOOOOOO$=1-=                      ",
"                 =-===OOOOOOOOOOOOOOOO$-1-   =                  ",
"                --==$OOOOOOOOOOOOOOOOOO=--=O                    ",
"               $1--$OOOOOOOOOOOOOOOOOOO$--1-                    ",
"               ---$OOOOOOOOOOOOOOOOOOOOO$=--$                   ",
"              =-==OOOOOOOOOOOOOOOOOOOOOOOO$-$O                  ",
"             $--=OOOOOOOOOOOOOOOOOOOOOOOOO$=OO                  ",
"            O$1-$OOOOOOOOOOOOOOOOOOOOOOOOO$O                    ",
"             O-=OOOOOOOOOOOOO  OOOOOOOOOOOO                     ",
"              OOOOOOOOOOOOOO     OOOOOOOO                       ",
"                OOOO             O  OOO    O                    ",
"                 OO                                             ",
"                                                                ",
"                                                                ",
"                                                                ",
"                                                                ",
"                                                                ",
"                                                                ",
"                                                                ",
"                                                                ",
"                                                                ",
"                                                                ",
"                                                                ",
"                                                                ",
"                                                                ",
"                                                                ",
"                                                                ",
"                                                                ",
"                                                                ",
"                                                                ",
"                                                                ",
"                                                                ",
"                                                                ",
"                                                                ",
"                                                                ",
"                                                                ",
"                                                                "
};
