/* XPM */
static char *f0767ab6136847968cba6cb4e2d8cfd7pe0Dh87kHdBoy7r1[] = {
/* columns rows colors chars-per-pixel */
"64 64 116 2 ",
"   c None",
".  c #04060A",
"X  c #06090E",
"o  c #070A10",
"O  c #0A0D14",
"+  c #0C0F18",
"@  c #0C1017",
"#  c #0D121A",
"$  c #10151F",
"%  c #121722",
"&  c #131925",
"*  c #171D2A",
"=  c #181F2D",
"-  c #1A212F",
";  c #1B2332",
":  c #1F2838",
">  c #212733",
",  c #202835",
"<  c #222B3B",
"1  c #28303E",
"2  c #262F40",
"3  c #273142",
"4  c #2B3445",
"5  c #2D3648",
"6  c #313B4E",
"7  c #333D51",
"8  c #364155",
"9  c #3B4457",
"0  c #3F4857",
"q  c #3B465B",
"w  c #3E485B",
"e  c #3F4A60",
"r  c #404857",
"t  c #434C5E",
"y  c #434E63",
"u  c #465167",
"i  c #4B5464",
"p  c #475268",
"a  c #4A556B",
"s  c #4D596D",
"d  c #525B6D",
"f  c #4D5971",
"g  c #525E74",
"h  c #566176",
"j  c #596274",
"k  c #576379",
"l  c #5B667A",
"z  c #5D687D",
"x  c #626E84",
"c  c #657187",
"v  c #6B7486",
"b  c #677389",
"n  c #6A768B",
"m  c #6E798D",
"M  c #6E7A91",
"N  c #737E92",
"B  c #778297",
"V  c #7A8395",
"C  c #778399",
"Z  c #7A859A",
"A  c #7E899E",
"S  c #828B9E",
"D  c #828DA1",
"F  c #8691A5",
"G  c #8B95AA",
"H  c #8E99AD",
"J  c #909AAF",
"K  c #939EB2",
"L  c #96A1B6",
"P  c #98A3B6",
"I  c #9CA6BA",
"U  c #9EA8BC",
"Y  c #A1ABBF",
"T  c #A4AEC1",
"R  c #A6B0C3",
"E  c #ABB3C6",
"W  c #ADB6C9",
"Q  c #AEB9CB",
"!  c #B2BCCE",
"~  c #B5BED1",
"^  c #B7C0D3",
"/  c #BAC3D5",
"(  c #B9C7DF",
")  c #BFC9DA",
"_  c #BDCAE2",
"`  c #C2CBDC",
"'  c #C3CFE4",
"]  c #C6D1E6",
"[  c #CAD4E6",
"{  c #CFD8E7",
"}  c #C6D2E9",
"|  c #CBD6EB",
" . c #CED9ED",
".. c #D2DCEE",
"X. c #D8DFED",
"o. c #CFDBF1",
"O. c #D3DDF1",
"+. c #D7E0EF",
"@. c #DAE1EE",
"#. c #D6E1F4",
"$. c #DBE4F5",
"%. c #DFE8F7",
"&. c #D7E2F8",
"*. c #DCE6F9",
"=. c #DEE9FA",
"-. c #E0E7F5",
";. c #E2E9F7",
":. c #EBEEF7",
">. c #E3ECFC",
",. c #E9EFFA",
"<. c #EDF1F7",
"1. c #E7F0FF",
"2. c #ECF2FC",
"3. c #F2F5FC",
"4. c #F6F9FE",
"5. c #FBFCFE",
/* pixels */
"                                                      5.5.5.5.5.5.5.5.5.5.                                                      ",
"                                            5.5.5.4.3.3.5.5.5.5.5.5.5.5.5.5.3.3.5.5.                                            ",
"                                        5.5.5.5.5.5.3.<.<.4.3.3.4.3.3.5.3.3.3.4.5.5.5.5.                                        ",
"                                    5.5.5.5.5.5.5.4.<.:.<.<.3.3.3.3.<.3.<.3.<.4.5.5.5.5.5.5.                                    ",
"                                3.4.5.5.5.5.5.4.3.<.<.3.5.3.4.4.3.5.3.5.5.<.3.<.3.5.5.5.5.5.4.3.                                ",
"                            5.3.<.<.3.3.4.5.4.3.3.<.3.4.5.5.4.5.5.5.5.5.5.5.3.3.3.3.4.4.5.3.<.3.4.5.                            ",
"                          5.4.3.<.<.3.<.3.3.3.<.3.4.5.5.5.4.5.5.5.5.5.3.4.5.5.3.<.<.<.3.3.<.<.<.5.5.5.                          ",
"                      5.5.4.3.<.3.3.3.3.<.3.<.2.<.3.<.3.3.3.3.4.3.3.3.<.<.3.<.<.<.<.<.<.3.<.3.2.3.4.5.5.5.                      ",
"                    5.5.5.3.<.3.4.5.5.3.3.2.2.2.3.:.:.:.:.:.3.2.<.<.3.<.2.3.2.<.<.<.3.3.3.5.3.2.<.3.4.5.5.5.                    ",
"                  4.4.5.3.3.3.5.5.5.5.5.5.5.4.3.4.2.:.:.3.3.3.:.3.<.3.3.3.4.4.<.2.3.4.5.4.5.5.5.3.<.3.4.5.4.3.                  ",
"                4.3.3.<.<.3.3.5.5.4.5.5.5.5.3.5.4.3.2.4.4.4.4.4.3.4.5.4.5.3.4.2.2.4.4.4.4.5.5.4.5.3.3.<.3.3.3.3.                ",
"              5.5.5.3.<.<.<.3.3.4.5.4.4.4.4.5.3.4.2.:.2.4.4.4.4.4.4.3.4.3.3.4.2.<.2.3.4.4.4.4.5.4.5.<.<.<.3.4.5.5.              ",
"              5.5.5.4.3.3.<.<.3.3.4.4.4.4.3.4.4.3.2.,.3.3.3.3.3.3.3.3.3.3.3.3.2.,.2.3.4.3.4.4.4.3.<.<.<.3.5.5.5.5.              ",
"            5.5.5.5.5.5.5.3.<.<.<.2.2.3.3.3.3.3.3.2.>.:.3.2.3.3.2.2.2.2.3.2.3.2.:.;.2.3.3.3.2.2.<.<.3.3.4.5.5.5.5.5.            ",
"          4.5.5.5.5.5.5.4.4.4.3.1.;.,.:.>.:.,.,.,.,.,.;.,.:.,.,.2.2.1.2.1.2.2.;.;.;.2.2.1.2.;.<.<.2.3.3.4.4.5.5.5.5.4.          ",
"          3.3.4.5.5.5.5.4.4.3.3.:.,.;.:.>.,.;.>.:.;.;.;.-.,.>.>.;.>.;.,.1.;.>.;.;.;.;.;.,.;.;.;.<.2.3.3.3.4.4.5.5.4.3.          ",
"        5.4.<.<.3.4.4.3.3.3.2.,.,.;.1.2.1.,.,.>.>.,.,.>.>.>.-.>.,.>.>.>.>.>.>.>.>.,.>.:.,.,.,.,.;.2.2.3.3.4.4.5.4.3.3.5.        ",
"        5.4.<.<.2.2.<.2.2.1.:.;.>.,.1.1.,.1.1.,.,.>.>.,.,.>.-.>.>.,.>.>.,.,.>.,.1.2.1.1.1.,.,.;.>.2.2.2.3.3.3.3.<.2.4.5.        ",
"      5.5.3.<.3.2.1.:.:.;.;.%.-.>.>.,.>.>.>.>.>.>.>.>.,.>.>.-.;.>.>.>.>.>.,.,.,.,.1.,.1.1.2.2.>.;.2.1.1.2.2.,.2.3.3.5.5.5.      ",
"      5.4.2.2.3.3.2.1.1.1.;.%.%.>.>.>.>.>.>.>.>.>.*.>.>.>.*.O.>.>.>.>.>.>.>.>.>.>.,.,.,.>.,.>.;.%.>.;.1.;.,.:.,.3.5.5.5.5.      ",
"    5.5.<.:.2.3.2.2.1.1.1.1.=.*.*.>.=.=.=.=.=.*.>.O.>.O.>.O.X.O.O.O.>.*.>.>.>.>.>.>.>.>.>.>.*.*.$.%.=.=.;.*.;.2.4.5.5.5.5.5.    ",
"    3.3.3.:.3.2.2.1.1.1.=.=.=.*.O.&.O.*.&.O.&.O.O.O.O.o.o.O.O...O.O.O.O.O.O.O.*.*.*.*.;.=.=.*.*.*.;.>.>.>.;.;.,.3.4.5.5.5.5.    ",
"    <.2.2.2.2.2.1.1.>.1.>.=.=.=.*.O.&.&.O.O.O.O. . . . . . .|  . .o.o.o.O.O.O.O.$.&.$.&.*.*.=.=.>.>.>.>.>.=.>.>.2.3.4.5.4.3.3.  ",
"  4.2.2.2.2.2.1.1.1.=.=.1.=.*.*.O.*.&.&.O.o.o.o.| |  .o.o.o.o.o.o...O... . .O.O.O.O.$.&.*.*.=.=.=.=.=.=.>.=.=.>.1.1.2.3.<.3.4.  ",
"  4.4.3.2.2.,.>.>.>.=.=.=.=.*.*.*.O.&.O.o.o.} } o.O.O.*.X.>.>.;.;.;.-.*.*.O.O.O. .o.O.#.&.&.*.*.=.=.=.=.>.>.=.*.;.>.,.,.1.2.5.  ",
"  4.3.3.2.1.;.;.*.$.*.*.*.&.&.&.O.O.O.O. .} } o.O.>.>.-.;.;.>.,.,.>.,.>.>.>.>.-.$.O.o.o.O.#.&.&.=.=.=.=.=.=.=.=.%.=.=.,.2.2.4.4.",
"2.2.2.2.2.1.1.>.*.*.=.*.*.&.#.o.O.o.o.| } } ..*.;.>.-.-.-.>.>.,.>.;.,.;.,.;.;.;.=.$... .o.o.O.&.&.=.=.=.=.=.=.*.;.>.1.1.1.3.3.3.",
"1.2.2.2.1.1.>.;.$.*.>.=.=.*.#.o.o.o.} } | O.-.>.>.-.-.>.,.>.,.,.,.,.>.,.;.;.;.;.;.=.$.#.o. .o.O.&.&.&.*.*.=.=.=.>.1.1.1.1.1.2.1.",
";.;.;.,.,.>.>.=.*.=.>.=.=.*.#.o.| | } } O.>.>.-.-.-.,.,.,.,.,.,.,.2.2.2.,.;.;.;.;.%.%.$.o.|  .o.o.#.&.*.&.*.=.>.>.1.1.1.1.2.2.1.",
"$.$.$.%.=.=.=.$.$.=.>.1.=.*.#.o.| } } O.*.-.-.-.,.>.>.2.2.2.3.2.2.2.2.2.2.,.>.,.;.%.%.;.&.| |  .o.&.&.=.*.*.=.>.>.>.>.1.1.1.1.1.",
"$.$.$.$.$.$.$.$.=.1.=.=.*.&.o. .} } o.*.-.>.-.>.,.,.,.,.2.2.,.2.,.2.,.,.2.,.2.2.1.%.;.;.=.O.}  .o.#.&.=.=.*.=.=.1.>.1.>.>.1.1.1.",
"$.$.$.%.=.=.=.$.=.>.=.=.*.&.o. .} | *.>.-.-.;.,.2.2.,.,.,.,.,.,.,.,.2.2.,.,.,.,.<.1.:.%.=.$. .|  .o.#.*.=.=.=.=.>.>.>.1.>.1.=.%.",
"&.=.=.=.>.>.>.=.=.=.=.=.&.+. .} } O.;.-.;.;.,.2.2.2.1.2.1.2.3.2.,.2.3.3.,.2.,.,.,.,.>.%.*.;.O.| | O.O.*.=.=.=.*.=.>.>.>.=.=.=.*.",
"&.&.=.>.1.1.>.=.%.=.=.$.#.+. .} | *.;.=.>.,.:.2.1.2.1.1.3.2.3.<.,.2.3.3.3.3.2.1.,.,.,.;.%.*.$...| O.O.&.=.>.>.=.*.=.=.=.=.=.=.=.",
"$.$.=.>.>.>.1.>.=.=.$.#... .{ ] ..%.;.;.:.1.,.>.2.2.3.3.3.4.4.3.2.2.4.3.3.3.3.3.2.,.>.;.-.-.-.O.| | O.*.=.=.>.=.$.$.=.=.=.=.>.=.",
"$.*.=.>.>.1.>.>.1.=.$.#... .[ ] ..%.;.;.:.1.,.:.2.3.3.5.4.5.5.3.3.4.5.4.4.3.3.3.3.,.,.;.-.$.%...| | O.$.$.*.*.$.$.=.>.>.1.1.>.>.",
"#.$.=.1.>.1.>.1.>.>.=.#. . .] } $.%.;.;.,.,.,.2.3.4.5.4.5.5.5.5.3.4.5.5.5.5.5.4.3.1.2.;.-.-.$.O. .| O.O.$.$.$.=.=.=.1.>.1.1.=.1.",
"#.$.=.=.>.1.1.=.=.=.*.#. . .] ] $.%.;.;.,.2.2.2.3.4.3.3.<.5.<.<.<.3.4.3.4.4.5.4.3.3.3.:.-.$.+.X...| O.O.$.$.$.*.1.1.>.1.=.1.1.=.",
"=.=.=.=.=.>.1.>.1.=.*.#. .[ ] ] O.;.;.>.1.3.3.2.<.2.1.;.@.@.@.@.{ @.@.-.;.:.1.3.2.2.4.2.;.$.+.$.X.| O.$.*.=.*.*.=.1.1.>.1.1.=.=.",
"=.>.=.=.=.=.=.>.=.=.&.#. .} ] ) O.;.>.:.2.3.3.2.+.{ { ' ` ` Y Y W W ! / ` { +.$.;.:.3.3.:.-.%.$...| O.O.*.*.=.%.=.>.>.>.>.=.=.*.",
"=.=.1.=.=.=.=.=.*.$.$.o. .} ] ] %.;.>.2.3.2.1.$.[ ` W Y G S S m V V S G I W ` [ +.%.<.2.2.;.;.%. .| O.#.=.=.=.=.=.1.>.>.=.*.*.*.",
"=.>.=.1.1.=.=.&.$.$.#.+.{ } ] } %.;.;.1.2.:.X.` W Y S m l i t r 0 r i j v S P W ` { $.<.2.:.>.>.O.{  .#.*.=.%.*.=.>.=.=.&.$.=.=.",
"=.=.1.>.1.1.=.#.$.$.#... .} ] [ *.>.;.2.:.X.` R G m g t 7 1 > > - > > 5 0 d v F Y / [ $.2.2.,.,.#.{ O.#.*.*.=.&.&.=.=.=.%.*.=.=.",
"=.=.1.1.1.=.=.=.=.=.#.O. .] ' { ;.;.,.:.X.` T D x i 7 1 - $ $ @ O @ $ - , 5 t z V P ^ [ ;.2.1.1.#. .O.O.#.*.&.=.=.>.=.>.*.=.=.=.",
"*.=.=.=.1.1.=.=.=.*.$.O.| ] ' ..,.2.;.$.' R D x u 6 < * # O X . . X O @ $ > 5 r l V I ^ { <.2.1.$.| O.#.&.=.=.1.>.>.1.>.=.=.*.*.",
"#.=.=.=.=.=.=.=.=.=.#.O. .] '  .,.2.$.{ ! J n s 7 < * $ O X . . . . . O # $ - 5 w z A Y ) +.;.<.$.{ O.#.=.=.=.=.1.>.>.1.>.*.%.*.",
"#.*.=.=.=.=.=.=.=.*.#...| ] ' | ;.,.X.) Y C g 9 2 ; # + X . . . . . . X @ # & < 6 u c G Q [ $.:.$. . .#.=.=.1.=.>.1.1.>.=.*.$.#.",
"O.=.=.=.=.=.=.=.>.*.#.X.| ] ' | ;.;.{ ! G x u 6 < & # o X . . . . . . . X @ $ - 3 q h Z I ) +.$.#. .+.+.=.=.=.1.=.>.1.=.*.*.*.$.",
"=.=.=.=.=.=.=.=.=.=.#.+.| } _ ] -.-.' T Z h q 4 ; & + X . . . . . . . . o o # = < 6 p n J ^ ..$.+.O.O.+.*.=.=.=.1.=.=.%.=.=.=.1.",
"#.&.=.1.1.>.=.=.=.&.#.O.| } ] ] $.X.` L M s 8 < = # o X . . . . . . . . o o # * ; 4 y x F Q ..%.$. .O.#.*.=.=.1.=.=.*.=.=.=.=.=.",
"  &.=.=.>.>.>.=.=.#.O. .{ } _ [ $.../ G x y 7 < * $ O . . . . . . . . . . o # % ; 3 q k S E { ;.*. .O.+.*.=.=.=.=.%.*.%.=.1.=.1.",
"  &.=.=.>.>.>.>.=.O.+. .{ [ ] ] O.$.~ F z e 5 ; & # o . . . . . . . . . . o # % ; < 8 g B T [ $.+.{ O.#.*.=.=.=.=.=.=.=.1.=.=.1.",
"  >.#.*.=.1.1.>.=.#.+. . .} } _ O.X.~ D g e 4 ; & # o X . . . . . . . . . X @ % = < 7 f M I [ +.O.| O.#.$.%.=.=.1.>.*.>.=.=.1.1.",
"    $.&.=.1.>.1.=.$.#.+. .| [ [ X.O.~ A g q 3 ; & # o . . . . . . . . . X X O % = < 7 p n I ] X.{ | o.*.=.=.=.1.>.=.=.=.=.=.1.  ",
"    =.$.&.=.1.=.=.&.#.#. . .[ } O.O.Q A f 7 2 = & # o X . . . . . . . . . X + % = < 7 p v P [ +.O.| o.#.=.=.=.1.>.>.*.*.=.1.1.  ",
"      =.#.&.=.=.=.$.=.&.O.{ } } O.O.! A f 7 2 = & @ o . . . . . . . . . . X + % * : 6 u z J ' $. .} | #.*.=.=.=.>.=.*.=.=.1.    ",
"        O.O.#.&.#.#.#.#.o.| } } X.X.Q C f 7 2 = & # o X . . . . . . . . . X + $ = : 6 p x J ' @.O._ } o.#.&.=.=.=.&.#.$.1.      ",
"          #.o.#.+.+.O.o. .} _ } X...W N a 7 2 = & @ o . . . . . . . . . . . + % = : 6 e x J ' #. ._ } |  .o.#.&.#.&.&.1.        ",
"            *. .|  . .| } } _ ] O...E N a 7 < = & + o . . . . . . . . . . X + $ = : 6 u x J ] ..| _ _ } } |  . .o.=.            ",
"                 .} } } ' _ ( ] O...T M a 7 : ; & # . . . . . . . . . . . o @ & = : 6 p x K ] #. ._ _ _ _ } }  .                ",
"                    } } _ _ _ _ O.O.T n a 7 < ; & # O . . . . . . . . . . X @ & - : 7 p c L [ $. .( _ _ _ }                     ",
"                            _ { O...Y b a 7 2 ; & $ o . . . . . . . . . X o # & - < 7 a n L [ $...(                             ",
"                                O.O.I b a 7 3 ; * $ + o . . . . . . . . . o # & ; 3 8 s m U { $.$.                              ",
"                                O. .U M f e 4 : = % + o . . . . . . . . X + $ = ; 4 q h C R { $.$.                              "
};
