/* XPM */
static char *result[] = {
/* columns rows colors chars-per-pixel */
"43 48 208 2 ",
"   c #000001",
".  c #010509",
"X  c #0A0B0A",
"o  c #1B1504",
"O  c #000B14",
"+  c #000E19",
"@  c #00121D",
"#  c #191918",
"$  c #221D0A",
"%  c #3A3313",
"&  c #2D2710",
"*  c #001622",
"=  c #001D2C",
"-  c #001927",
";  c #001F30",
":  c #002334",
">  c #002739",
",  c #00293D",
"<  c #0F2B32",
"1  c #00202F",
"2  c #222323",
"3  c #2D2D2C",
"4  c #20292E",
"5  c #3A3A39",
"6  c #32342A",
"7  c #493C16",
"8  c #423816",
"9  c #53441A",
"0  c #58461B",
"q  c #61501F",
"w  c #575028",
"e  c #675723",
"r  c #725F28",
"t  c #77662A",
"y  c #002D43",
"u  c #00354C",
"i  c #003147",
"p  c #003750",
"a  c #003A55",
"s  c #003F59",
"d  c #1F3C4A",
"f  c #00415E",
"g  c #134357",
"h  c #364748",
"j  c #004563",
"k  c #004B6B",
"l  c #044A63",
"z  c #004F71",
"x  c #005274",
"c  c #00567A",
"v  c #00597D",
"b  c #0B5C7D",
"n  c #585858",
"m  c #4D4C4C",
"M  c #726D5E",
"N  c #5B7560",
"B  c #686869",
"V  c #787878",
"C  c #8C7732",
"Z  c #937B35",
"A  c #856F2E",
"S  c #9A8339",
"D  c #8F873B",
"F  c #A4883B",
"G  c #A4973F",
"H  c #AA9541",
"J  c #AD9F57",
"K  c #BAA346",
"L  c #BFA754",
"P  c #BFB34E",
"I  c #8F8E73",
"U  c #BFAA66",
"Y  c #BDAB76",
"T  c #C9AD4C",
"R  c #C3AD5A",
"E  c #CCB558",
"W  c #CCB557",
"Q  c #D3BA51",
"!  c #CDB24E",
"~  c #C1AC6A",
"^  c #C0AC66",
"/  c #C5B477",
"(  c #D8C456",
")  c #E4CE5D",
"_  c #E2CA57",
"`  c #E6D35C",
"'  c #EEDC5D",
"]  c #F0DF5F",
"[  c #EAD762",
"{  c #FDEC65",
"}  c #F6E768",
"|  c #FFF166",
" . c #FEF368",
".. c #F5E775",
"X. c #005D84",
"o. c #005F89",
"O. c #00648D",
"+. c #076589",
"@. c #016691",
"#. c #006A95",
"$. c #006E9A",
"%. c #0C6A95",
"&. c #166D95",
"*. c #00719E",
"=. c #19739B",
"-. c #117098",
";. c #267499",
":. c #32799A",
">. c #0074A3",
",. c #007AAB",
"<. c #057CA9",
"1. c #007FB3",
"2. c #287CA1",
"3. c #4C7F9A",
"4. c #657883",
"5. c #0082B5",
"6. c #0085BB",
"7. c #0089BF",
"8. c #3982A6",
"9. c #3A8CB2",
"0. c #288EBA",
"q. c #47829B",
"w. c #7A8286",
"e. c #4887A6",
"r. c #538DA9",
"t. c #5E9AB9",
"y. c #528FAD",
"u. c #6896AD",
"i. c #6897B1",
"p. c #608EA5",
"a. c #7BA7BD",
"s. c #008AC1",
"d. c #008FC8",
"f. c #0095CD",
"g. c #0090C7",
"h. c #009AD3",
"j. c #009FD8",
"k. c #1194C9",
"l. c #00A2DB",
"z. c #5DA3C5",
"x. c #6BA9CB",
"c. c #9C9D9D",
"v. c #949697",
"b. c #868888",
"n. c #BDB589",
"m. c #ABAB9A",
"M. c #999EA0",
"N. c #8EA9B7",
"B. c #ABACAD",
"V. c #A3A4A4",
"C. c #B9B7A9",
"Z. c #ACB1B1",
"A. c #B4B5B5",
"S. c #BABBBB",
"D. c #B8B9B7",
"F. c #B0AFAE",
"G. c #C6B785",
"H. c #C4BC99",
"J. c #BFC0BF",
"K. c #DDD280",
"L. c #EEE080",
"P. c #CCC5AD",
"I. c #CCC3A4",
"U. c #D1CBAC",
"Y. c #CBC7B8",
"T. c #D4CDB8",
"R. c #8BB2C9",
"E. c #9BBBCB",
"W. c #8BBCD6",
"Q. c #A9BECA",
"!. c #B6C2C7",
"~. c #A9C5D4",
"^. c #B5CDDA",
"/. c #BDCFD8",
"(. c #9BC8E2",
"). c #BFD6E2",
"_. c #C3C3C3",
"`. c #CBCCCB",
"'. c #C6C7C8",
"]. c #D2CEC2",
"[. c #D5D3CC",
"{. c #DAD7CC",
"}. c #C8D3D7",
"|. c #D3D3D3",
" X c #DCDDDD",
".X c #D8D8D5",
"XX c #E1DFD9",
"oX c #DFE0DF",
"OX c #E4E2DD",
"+X c #C9DBE6",
"@X c #D5DDE2",
"#X c #E0DFE0",
"$X c #D3E3EB",
"%X c #DCE5E9",
"&X c #CFE0E9",
"*X c #E4E4E4",
"=X c #ECEDEC",
"-X c #E6E9EA",
";X c #F1F1EE",
":X c #E2EBF2",
">X c #ECF2F5",
",X c #EBF4F8",
"<X c #F3F3F3",
"1X c #F9F8F7",
"2X c #F6F9FB",
"3X c #FDFEFE",
"4X c #F5F7F8",
"5X c None",
/* pixels */
"5X5X5X5X5X5X5X5X5X5X5X5X5X5X5X5X5X5X5X5X5X5X5X5X5X5X5X5X5X5X5X5X5X5X5X5X5X5X5X5X5X5X5X",
"5X5X5X5X5X5X5X5X5X5X5X5X5X5X5X5X5X5X5X5X        5X5X5X5X5X5X5X5X5X5X5X5X5X5X5X5X5X5X5X",
"5X5X5X5X5X5X5X5X5X5X5X5X5X5X5X5X5X                        5X5X5X5X5X5X5X5X5X5X5X5X5X5X",
"5X5X5X5X5X5X5X5X5X5X5X5X5X5X        . @ 1 : : 1 - @ . .       5X5X5X5X5X5X5X5X5X5X5X5X",
"5X5X5X5X5X5X5X5X5X5X5X5X      . - f O.>.6.7.7.6.5.5.@.k u @     5X5X5X5X5X5X5X5X5X5X5X",
"5X5X5X5X5X5X5X5X5X5X5X    . , c ,.f.l.l.l.l.l.l.l.l.l.l.f.$.>     5X5X5X5X5X5X5X5X5X5X",
"5X5X5X5X5X5X5X5X5X5X    O j ,.s.f.j.l.l.l.l.l.l.l.l.l.l.l.l.*.i     5X5X5X5X5X5X5X5X5X",
"5X5X5X5X5X5X5X5X5X    @ c 6.d.s.7.g.f.f.l.h.l.h.l.h.j.l.j.h.g.,.p .   5X5X5X5X5X5X5X5X",
"5X5X5X5X5X5X5X5X    @ X.s.s.s.6.s.s.s.s.s.d.d.d.g.f.h.h.f.g.7.g.1.a .   5X5X5X5X5X5X5X",
"5X5X5X5X5X5X5X5X  O v s.s.s.s.s.s.6.6.6.1.1.6.6.7.7.7.7.7.6.6.6.d.,.=   5X5X5X5X5X5X5X",
"5X5X5X5X5X5X5X    j 6.s.s.6.s.6.1.5.0.z.x.x.9.<.*.<.<.5.<.<.x.(.x.k.c .   5X5X5X5X5X5X",
"5X5X5X5X5X5X    : >.d.s.s.s.1.,.9.E.$X>X<X>X$XQ.y.&.%.&.e.R.:X3X,X(.0.y     5X5X5X5X5X",
"5X5X5X5X5X5X  . z s.s.s.6.6.>.e.).2X3X2X<X1X3X1X%X^.Q.^.$X4X3X2X3X>XW.X..   5X5X5X5X5X",
"5X5X5X5X5X    : ,.d.s.s.s.,.=.~.2X3X4XA.V v.*X<X;X;X<X<X<X=XD.c.'.3X+X8.>   5X5X5X5X5X",
"5X5X5X5X5X  . x s.s.s.s.6.,.:.$X2X3XA.2   X b.|.[.[.[.[.|.A.5   m .X>Xz.k O   5X5X5X5X",
"5X5X5X5X5X  = ,.s.s.s.6.6.>.9.$X3X4XB       5 Y.].T.U.U.I.I &   # B.>XR.+.>   5X5X5X5X",
"5X5X5X5X    k s.s.s.s.s.s.>.8.$X3X2XB       6 / L...} ..} [ G t w F.4XQ.%.a . 5X5X5X5X",
"5X5X5X5X  @ $.s.6.s.6.s.6.>.2.^.2X3XB.2 . $ Z ]  . . .|  . . .} ( P.;X}.;.z O   5X5X5X",
"5X5X5X    u 6.s.s.s.6.s.6.*.=.E.2X3X<XF.I Z ( { | | | |  . .{ { ] G.XX@X:.o.;   5X5X5X",
"5X5X5X    c s.s.s.6.s.s.,.#.-.E.2X3X3X3XT.L ( ) ` ` [ [ ` ` ` ) Q / XX:Xi.#.: . 5X5X5X",
"5X5X5X  + $.s.6.6.6.6.6.>.O.=.E.2X3X3X1X{./ L R E E E E E E E E R G.XX<Xa.@.u . 5X5X5X",
"5X5X    a 5.6.6.6.1.1.,.*.@.2.^.3X3X3X3X=XT.G.Y Y U U U U U ~ n.H.Y.-X1XE.%.x +   5X5X",
"5X5X  . c d.7.7.7.6.1.,.$.@.y.%X3X3X3X3X2X*X[.T.T.P.P.P.P.P.Y.T.].XX2X3XQ.%.o.>   5X5X",
"5X5X  * $.s.7.s.7.7.5.>.@.@.a.>X3X3X3X3X3X1X*XXX.X[.{.[.[.[.[..X*X1X3X3X^.-.@.p   5X5X",
"5X    i 5.7.7.7.7.7.5.*.O.&.E.4X3X3X3X3X3X3X1X;X=XOXOXOXOX*X=X;X3X3X3X3X+X;.@.k . 5X5X",
"5X  . j 7.7.7.7.7.s.,.@.O.:./.1X3X3X3X3X3X3X3X3X1X1X1X3X3X3X3X3X3X3X3X3X:Xt.@.X.+   5X",
"5X  * O.6.7.7.7.s.6.>.X.X.r.@X3X3X3X3X3X3X3X3X3X3X3X3X3X3X3X3X3X3X3X3X3X4XR.#.X.=   5X",
"    : *.6.s.7.7.6.1.@.v X.u.$X3X3X3X3X3X3X3X3X3X3X3X3X3X3X3X3X3X3X3X3X3X1X^.:.O.i   5X",
"    u >.6.7.s.7.5.>.v z +.N.-X3X3X3X3X3X3X3X3X3X3X3X3X3X3X3X3X3X3X3X3X3X1X@X3.O.s   5X",
"  . j >.6.7.6.5.,.#.j k ;.E.=X3X3X3X3X3X3X3X3X3X3X3X3X3X3X3X3X3X3X3X3X3X1X@X4.x f   5X",
"    k *.5.6.5.,.*.x p x :.^.=X3X3X3X3X3X3X3X3X3X3X3X3X3X3X3X3X3X3X3X3X3X4X Xw.g a   5X",
"  . f #.*.>.*.#.c y a v e.}.=X3X3X3X3X3X3X3X3X3X3X3X3X3X3X3X3X3X3X3X2X1X<X*XM.d ,   5X",
"    , O.#.#.#.v = ; a o.p.}.-X4X1X3X3X3X3X3X3X3X3X3X3X3X1X1X1X1X1X1X<X<X=X*XB.4 @ . 5X",
"5X  O u x c k = + , k O.i.}.-X<X1X1X1X3X3X3X3X3X3X2X1X1X1X1X4X4X4X<X<X<X=X#XB.4 . . 5X",
"5X    . @ * . + > a X.@.i.}.*X;X<X<X4X1X2X1X1X3X3X1X1X1X1X<X;X<X<X<X<X=X-X@XB.2     5X",
"5X5X    . @ = y u k O.O.i.|.*X-X=X<X<X4X<X<X2X<X4X<X4X2X<X<X<X<X<X<X<X=X*X@XV.2     5X",
"5X5X    * i u u k O.@.O.u.}.OXOX*X=X<X<X=X<X<X4X<X<X<X<X<X;X<X<X<X=X;X-X#X Xv.X   5X5X",
"5X5X    - p a x O.O.O.@.q.!..XoX*X*X=X=X<X<X<X<X<X<X<X<X<X<X;X;X=X=X*X#X#X|.b.X   5X5X",
"5X5X5X  = f j X.O.O.O.O.;.N.`.|. X#X*X*X=X=X=X=X=X<X=X;X=X=X=X-X*X*X*XXX|.'.B .   5X5X",
"5X5X5X  * a j X.O.@.O.O.+.p.Q._.`..X#X#X#X*X*X*X-X*X-X*X*X*X#X#X#X#X@X|.'.B.5     5X5X",
"5X5X5X  . i j c O.@.O.O.O.;.N.J.!._.`.{..XXX#X#X@X#X#X#X X X X X.X|.'.J.A.B X   5X5X5X",
"5X5X5X    : a j v X.+.+.+.+.q.Z.Y.!.Y.Q._.'.'.`.[.`.|.|.`.`.'._.S.S.S.A.V #     5X5X5X",
"5X5X5X5X  O i s f j k f g h N I n.C.D.S.S.J.S.S.S.D.S.S.S.S.D.S.S.S.c.n X $ o     5X5X",
"5X5X5X5X    @ > u u < 6 w D P ( [ [ K.G.m.F.A.S.D.S.A.Z.B.V.V.c.V n 6 $ t K t   5X5X5X",
"5X5X5X5X5X    . # % e G ` ] { { { { } ) J M V v.c.c.v.V n 5 3 2 $ % e S T T A X 5X5X5X",
"5X5X5X5X5X5X  o r S T Q _ ` ` _ _ Q Q ! H 7 # # 2 3 3 6 8 8 7 e t Z F F F Z 8   5X5X5X",
"5X5X5X5X5X5X5XX 7 t C Z S S D D C A t r 0 o           $ % 7 7 9 9 9 9 9 8 o     5X5X5X",
"5X5X5X5X5X5X5X5X5X5X5X5X5X5X5X5X5X5X5X5X5X5X5X5X5X5X5X5X5X5X5X5X5X5X5X5X5X5X5X5X5X5X5X"
};
